<svg xmlns="http://www.w3.org/2000/svg" viewBox="0 0 1724 1600"><defs><style>.cls-1{fill:#f4f4f4;}.cls-2{fill:#525f7f;}</style></defs><title>Artboard 1</title><g id="Layer_3" data-name="Layer 3"><rect class="cls-1" width="1724" height="1600"/></g><g id="Layer_2" data-name="Layer 2"><path class="cls-2" d="M1,862V784c9.52-4.13,16.26-12.25,25.47-17.12a168,168,0,0,1,49.61-17.51,18.08,18.08,0,0,0,7.51-3.52c10.82-7.77,18.9-18.78,31.68-24.43,14.27-6.3,24.55-18.64,37-27.83,15.56-11.49,31.13-23.06,49.32-29.91a194.53,194.53,0,0,1,51.17-12.06,5.66,5.66,0,0,0,2.8-.76c4.82-3.47,10.82-5.4,14.19-10.8,3.5-5.62,9-10.41,7.17-18.2-.48-2.09.31-4.21,1.43-6.19,3.91-6.92,7.78-13.86,11.44-20.9,1.06-2,2.28-3.79,4.31-4.6,2.3-.91,3.67-2.69,5.38-4.25,2.76-2.5,4.21-6.69,8.38-7.36a22.05,22.05,0,0,0,8.66-3.65c6.39-4.19,12.62-8.63,19-12.88,1.8-1.21,1.75-2.48,1-4.24-1.37-3.21-2.31-6.62-3.89-9.7-1.3-2.55.26-4.41,1.35-5.82,1.28-1.67,2.89.27,4.09,1.22,1.62,1.28,3.56,1.71,5.39,2.48,9.52,4,17.24-1.06,23.84-6.14,9.93-7.63,21.33-12.54,31.85-19.51-1.77-1.3-1.9-5.09-5.33-3.68-3.15,1.3-4.55-.37-6.16-2.47-2.44-3.18-3.11-7.75-7.55-9.4a2.32,2.32,0,0,1-1.06-2.61,2.22,2.22,0,0,1,2.14-1.8c7-.51,10.29-5.36,12.16-11.1,1.36-4.14,1.36-8.69,7.54-8.45.91,0,2.07-1.57,2.78-2.63a7.88,7.88,0,0,1,4.16-3.42c4.82-1.48,7-5.38,8.85-9.49.9-1.95,1.09-4.28,2.19-6.08,6.84-11.22,10.87-23.07,9.55-36.45-.25-2.55.48-5.79,3.16-6.72,2.28-.78,4.94.39,6.44,2.7,5.14,7.93,12.79,13.35,19.58,19.63a14.11,14.11,0,0,1,4.86,8.78c1.5,9.49,3.42,19,8.42,27.5,6.95,11.76,15.41,22.43,24.16,32.87a17.43,17.43,0,0,0,6.57,5.2c12.45,4.73,25.11,8.16,38.74,7.9,7.27-.13,12.17-1.81,15.58-8.62,5.34-10.64,10.32-21.76,21.43-28.08,5.65-3.22,11.4-6.49,18.19-5.06a69.86,69.86,0,0,0,9.85,1.27c10.46.69,20.25-3.82,30.64-3.82,1.82,0,3.29-1.84,4.26-3.8,4.41-8.93,9-17.77,13.5-26.65,1.44-2.84,3.41-6.77,6.23-6.45,9.58,1.1,15.9-6.52,25.14-7.78A45.59,45.59,0,0,1,672,410.11c-.75-2.57-2.37-3.09-4.86-3-3.38.06-6.87,1.34-10.42-.44,1.21-2.42,3.42-3.71,5.19-5.41,1,3.66,2.94,2.08,4.69.77,4.67-3.47,9.2-7.12,13.93-10.51,5.08-3.64,16.5-3.86,22.44.16-13.78-2.27-24.23,1.8-32.48,11.49,3.77,2.24,11.92,11.2,13.53,14.88-2.24.29-3-1.84-4.45-2.79-.87-.56-1.55-1.31-2.54-.22-.7.77-.53,1.34.06,2.13,2.68,3.59,4.72,7.73,8.13,10.69,2.67,2.32,5.37,5.21,9.67,3.43a2.42,2.42,0,0,1,3.07,1c.56,1-.34,1.87-1,2.62-2.29,2.84-5,5.44-6.31,9.19,7.65-4.48,15.37-4.48,22.79-1.65,3,1.17,5.75,2.06,8.89,1.67,4.39-.55,8.78-1.15,13.17-1.73a21.65,21.65,0,0,1-20.85,3.1c-6.69-2.42-12.81-2.15-19.58-1.26,8.9,2.83,15.52,8.54,21.65,14.94.63.65,1.64,1.56.74,2.53s-1.84.33-2.69-.29l-2.41-1.74c1.33,5.14,2.37,9.57,1.14,14.66-1.7-6.6-1.91-13.21-6-18.56,1.29,7.7.2,15.37.6,23,.36,7,2,13.6,6.78,19.19,2.41,2.81,5.19,3.21,8.44,3.08s4.35-2.44,5-5.16c-8.87-2-16.36-9.06-15-18,2.39,4,2.83,8.44,7.75,10.93,7.89,4,9,4.36,14-2.74,1.4-2,1.41-3.08-.62-4.35-4.63-2.89-7.54-7.48-11.1-11.42-.64-.71-1.66-1.48-.83-2.52,1-1.28,2.24-.44,3,.28a32,32,0,0,1,4.9,5,25.39,25.39,0,0,0,8.33,7c7.23,4.16,7.32,4.14,11.57-3.3,1-1.8,4.06-3.26,2-5.92A99.83,99.83,0,0,0,743,459.88c-2-1.89-4,1.33-6.39,1.24a20.63,20.63,0,0,1-8.2-1.84c-1.81-.84-3.57-1.79-5.34-2.7,4.8,5.12,9,10.39,11.67,16.89-7.9-8.21-13.53-18.74-25.13-23,4.55,1.11,9.42-.54,13.41,3.2a19.65,19.65,0,0,0,11.83,4.85c5.63.51,6.93-1.35,4.91-6.51-.66-1.7-1.25-3.44-1.75-5.2-2.59-9.12-1.09-18.19.68-27.18.77-4-.36-5.82-4.29-6.59-8.49-1.67-16-1.9-22.64,5.71-6.46,7.39-20.73,6.35-27.75-.74,1.41-.8,2.54.06,3.73.62,12.26,5.71,19.14,3.16,26.2-5.05a12.76,12.76,0,0,1,10.55-4.63,44.82,44.82,0,0,1,12.31,1.69c2.5.77,3.16-.14,4.09-2.57,3.17-8.24,3.93-17.63,10.94-24.12,2.28-2.12,0-2.68-1.2-3.58-5.79-4.29-11.59-8.7-13.48-16.1-1.1-4.29-3.79-7.78-5.09-11.91-.13-.41-.32-1-.62-1.14-3.14-.89-3.18-.86-3.46-3.3-.68-6-2.88-11.61-5.17-17.12-1.3-3.11-3.6-5-7.13-6.26-8.17-2.88-14.74-7.68-18.58-16.21-2.64-5.86-2.16-11.62-2.39-17.5-.17-4.16.17-8.35-.12-12.49s-1.11-8.18-1.69-12.27c-5.71,19.13-9.82,38.16,0,57.16-7.36-8.2-7.54-18.48-8.3-29.22-8,12.49-8.86,25.22-6.14,38.27,2.46,11.77,11,18.25,21.13,16.83-.08-.31-.08-.72-.28-.91-1-.92-2-1.79-2.94-2.66-8-7.14-14.13-15.41-15.3-26.52l0,0c1,5.23,5.28,8.54,7.88,12.83,4.71,7.76,12,13.31,18.25,19.76,3.18,3.3,6.24,6.16,7.16,10.82.51,2.61,1.28,5.18,4.53,5.88,1.28.28,2.78,1.14,2.24,2.75-.69,2.05-2.21.63-3.28.24a37.69,37.69,0,0,0-20.53-1.42c-12.49,2.42-20.12,10.65-25.83,21.37-1.87,3.49-3.78,7.27-8.1,8.59,2.73-4.36,6-8.47,8.09-13.14,5-11.36,12.75-18.45,25.42-20.5,4.9-.79,9.55-1.45,14.64.13-2.77-9.51-6.78-13.71-14.22-14-9.56-.4-15.46-5.65-19.18-13.66a41.5,41.5,0,0,1-1.19-33.32c5.65-15,11.68-29.88,11.57-46.47a170.92,170.92,0,0,0-2.73-31.24c-.2-1.06-1.48-2.15-.34-3.16s2.59-.43,3.78.09c11.31,4.86,22.74,9.57,31.59,18.54,2.89,2.92,5.26,6.35,8.26,10-.07-4.85-1.66-8.71-2.7-12.67s-.23-6.74,2.56-9.93c11.35-13,25.83-13.4,41.19-11.29,6.93.95,11.69,6,18.19,9.32,4.14-20,8.15-39.52,3.47-59.63,13.4,4.85,24.49,13.43,35,22.7,4.82-11.51-1-19.67-7.9-28.11,7.6-.37,12.82,3.7,19.26,5.41-1.74-9.74-4-19.1,1.23-28.42,1.53,2.33,1.34,4.79,3.14,6.26,2.43-2.69,1.73-5-.5-7.45-8.1-9-17.65-15-30.13-15.48-2.72-.11-5.89.17-6.6-3.71,1.92.11,3.71,1.54,5.74.54,1.21-.59,2.69-1.2,1.19-2.78-2.89-3-4-7.13-5.95-9.85-2.33-1.35-2.19,2.8-4.38,1a18,18,0,0,1,.73-3.4c3.93-9.28,3.91-18.74,1.21-28.26-1.85-6.51-4.17-12.82-11.71-16.41,9.23-3.52,17.57-2.84,25.92,0,1.52.52,3,2.54,4.3-.55,6.18-14.92,18-23.29,32.88-28.11,2.69-.87,5.5-1.5,7.47-3.74,4.27-4.87,10.48-6.95,15.47-10.78.68-.52,1.51-.9,2.28-.3s.56,1.4,0,2.18c-1,1.52-.24,4.38.13,4.31,4.79-.85,2.4,2.87,2.35,4.09a48.1,48.1,0,0,0,8.36,29.79c-.88-6.56-2.26-11.69-2.48-17-.14-3.65,1.4-3.63,3.58-2.27,6.32,3.93,13.62,5.17,20.4,7.8l.09-.22c-.19.91.62.93,1.11,1.23,2,1.13,4.09,2.39,5.2,4.43,4.07,7.46,8,15,11.89,22.56a9.54,9.54,0,0,1,.83,3.36,47.69,47.69,0,0,1-4.69,26.5c-1.28,2.57-2,6.5-6.19,6.77,0-.65,0-1.29,0-1.94,1.27-1,3.29-1.74,1.93-4-.39-3.59,3.76-4.05,4.7-7.16a55,55,0,0,0,2.07-20.68c-.24-3-1.2-6-4-7.65-1.75-1.06-2.23-2.75-3.07-4.35a85.13,85.13,0,0,0-5.29-9.55c-3.43-4.9-8-8.11-15.71-8.54,5.61,6.94,5,14.11,4.47,21.24a85.7,85.7,0,0,0,0,12.82c.71,9.74-1,19-8.54,26-2,1.91-.92,3.64-.4,5.44.6,2,2.5,2.17,4.09,1.94a64.57,64.57,0,0,0,9.69-2c3.87-1.17,6.14-4.8,10.06-5.59,0,.67,0,1.33,0,2a2.1,2.1,0,0,0-2.05,2c-4.11,2.53-8.45,5.09-13.22,5.25-6.13.2-9.72,2.2-9.82,8.7,0,.13-.21.26-.28.4-.43,1-.59,2,.32,2.7a1.85,1.85,0,0,0,2.59-.52c2.33-3,5.53-2.62,8.67-2.51a37.44,37.44,0,0,1,11.62,2.48c4.47,1.63,9,.34,11.21-3.12,5-7.92,9.56-16.28,9.19-26.23a150,150,0,0,0-2.5-23.74c-3-14.74-10.79-26.35-22.93-35.14-1.94,2,2.27,4-.4,5.74A54,54,0,0,1,911,39.45c-.38-1.17-2.16-2.28-1.17-3.37,1.3-1.43,3.13-.43,4.64.24A12.23,12.23,0,0,1,917,38c7.84,6.13,14.34,13.35,18.39,22.6.75,1.72,1.16,3.58,3.44,4.53,11.05,4.62,15.48,13.88,17,25.06-.64,2.13-1.72.55-2.64.32-.21.94-.92,2.23-.55,2.75,1.13,1.57,2.21-.27,3.36-.45,1.92,1.41,3.89.15,5.76-.07,8.73-1,17.16-1.14,23.84,6.09-1.69.34-3.53.39-5.08,1.09-9.74,4.43-16.81,11.7-21.78,21.09a3.69,3.69,0,0,0-.51,2.33c2.54,9.48-2.22,16.67-7.52,23.54a5.46,5.46,0,0,0-1.27,5.31c1.41,5.75,1.29,8.74-.09,12.42-6.75-6.74-12.77-14.5-23.35-16,3.34,9.92,3.34,9.92,2.4,13.71-9.86-8.14-13.85-9.61-24.65-9.06-1.42.07-2.85-.29-3.84,1.51-3.17,5.78-2.43,8,3.64,10.72,13.24,5.9,23.6,14.77,29.08,28.6,1,2.59,2.21,5.11,3.51,8.08,7-5.88,13.83-11.44,18.53-19.71a27.88,27.88,0,0,1,.92,12.09c-.07.43-.13.86-.19,1.29l1-.51c6.22-3.73,10.07-10.66,17.46-13.19.63,6.17-3.35,10.54-5.95,16.38,3.48-1.51,6-2.52,8.47-3.71,5.7-2.76,11.64-4.26,17.86-2.57a460.29,460.29,0,0,0,56.64,11.19c-3.38,12.75-14.58,16.94-25.37,22.17,10.66,5.39,21.38,7.38,32.79,5.78,7.08-1,9.66-3,10.65-10.13.67-4.77,2.09-3.55,4.21-1.09-2.33,2.26-2.55,5.39-4,8.65,3.76-1,4.53-3.41,5-6,3.18,7.46,4.29,14.88,1.7,23-3,9.28-4.58,19-10.7,27-4.93,6.47-4.67,8.25,2,13.18a28.36,28.36,0,0,0,7,3.73c11.36,4.14,23.2,6.27,35.14,7.73,3.33.41,2.78,1.44,1.34,3.26-.71.88-1.56,1.65-2.35,2.48-.59-1.22.89-3-2.23-3.54-4.41-.72-8.82-1.23-13.23-1.86-9.45-1.36-18.79-3.43-26.71-9.26-4.89-3.59-8.09-8.52-10.09-14.9-6.61,9.72-16.38,13.95-25.43,19.16a23.43,23.43,0,0,1-14.33,3.05c-7.38-.67-13.27,3.07-18.61,7.75,9,.44,17.89.69,25.91,4.73,6.47,3.25,12.38,2.88,18.43-.71,5-3,10.07-5.77,15.1-8.64l.08.07c-.31,1.86-1.86,2.65-3.17,3.59-3.92,2.83-7.9,5.59-11.85,8.38l-.41-.19.39.21a40.46,40.46,0,0,1-6.5,2c-4.11.55-8.23,1.79-12.3-1.07-1.47-1-3.84-2.77-6.21-.95-6.68-4.14-14.07-2.06-21.13-2.84,12.59,6.64,21.91,16,27.55,29a10.38,10.38,0,0,0,4.79,5.44c11.3,6,27.62-1.35,32.09-14.52-6,1.21-10.69,5.42-16.27,7.78-3.9,1.65-4.24,1.55-8.88-1.37,5.73,1.59,9.37-.48,13.44-3.11-7.49-.85-13.85-2.78-18.54-8.32,1.91-.51,3,.89,4.41,1.76,10.73,6.75,30.3,3.12,35.2-7.81a23,23,0,0,1,6.85-8.72c7.36-6.07,15.44-10.44,25.46-6.31-12.38-1.73-21.75,3.51-30.57,13.37,4.89-1.18,8.49-2.36,12.19-2.89,6.34-.91,12.34-2.56,17.57-6.42,1-.74,2.58-1.14,1.9-3,1.67.76,3.42-.9,5.07.17a26.89,26.89,0,0,1-18.5,10.27c-4.47.52-9.39.45-13.58,3.2,5.33,5.79,11.79,8.57,18.85,10.27,1.66.4,4.12-.8,4.85,1.36s-1.68,3.43-2.86,4.9c-1.9,2.37-4.76,3.58-7.51,4.72-5.17,2.14-10.43,4.08-15.61,6.2a6.6,6.6,0,0,1-3.75.49c-5.88-.81-11.92-2.4-15.79,4.69-1.43,2.64-4.43,4.51-7.38,5.79-2.52,1.11-2.08,2.23-.6,4.06,3.67,4.52,4.89,11.56,12.51,11.95a.57.57,0,0,1,.43.22c2.59,5.58,8.74,7.28,12.55,11.53a39.65,39.65,0,0,1,10.51,22.38,49.71,49.71,0,0,0-14.8-5.59c-3.63-.83-4.42,1.85-6.14,3.79-2,2.21-.66,3.5.74,5,2.82,3.06,5.37,6.42,8.47,9.17,2.85,2.53,2.26,3.34-1.06,3.77-4.59-4.95-9.1-10-13.8-14.82-3-3-5.82-7.76-5.75-13.05,9.47,1.94,18.72,2.33,27.57,5.29.39-2.4-.74-3.74-1.42-5.21-3.6-7.79-10.57-12.2-17.19-16.92-2.21-1.57-3.32-5.15-6.75-4.46s-2.16,4.65-3.68,6.88c-2.57,3.77-5,7.71-4.29,12.87,1.4,9.6,1.33,19.16-1.44,28.63-.84,2.87,3.11,6.14,6.49,5.82a39.09,39.09,0,0,0,11.57-2.71c1.7-.72,3.52-2.21,5.52-.5-6.64,3.64-13,8-20.92,8.47,0,.43.05.87.07,1.3l0-.22c-1,.17-3.12-.74-2,1.57a4.76,4.76,0,0,1-.43,5.07c-3.4,5.53-6.73,11.09-10.06,16.66-.58,1-1.5,1.59-1.7,2.91-.89,5.86,4.3,10.05,4.23,15.68,0,.34,1,.84,1.57,1,4.22,1.1,7.15,4.05,10.28,6.81,7.67,6.77,16,12,26.92,10.39a13.73,13.73,0,0,1,7.76,1.39c8.28,3.75,14.74,10.93,24.07,12.72a3.09,3.09,0,0,1,1.51,1.27c4.35,5.94,11.06,6.28,17.19,5.91,7.11-.44,13.16.86,18.52,5.39,2.71,2.29,4.26,1.38,5.7-1.45s1.89-6,2.94-9c.46-1.29,1-3.48,3-1.65,6.72,6.28,12.71,13.36,14.33,22.59,2.38,13.53,7.73,17.87,20.55,14.8,2.09-.5,1.78.89,2,1.65,1.41,5.47,3.14,10.91,3.16,16.62,0,4.65.05,9.07,5.5,11,1.31.46,1.43,2.14,1.92,3.36.88,2.17,1.79,4.33,3.69,5.85,6.83,5.47,12.43,12.54,20.69,16.17a3,3,0,0,1,2,2.63c0,1.3-1.16,1.45-2.07,1.74-3.84,1.23-4.37,4-4.68,7.74-.63,7.58,2.59,14.69,1.79,22.3,5.57-2.35,15-14.34,15.31-21.14.83-17.25,2.14-34.68-6.28-50.85a14,14,0,0,1-2-7.09c.33-8.78,3.64-16.8,5.66-26.08,2.25,10.93,7,19.58,12.74,27.8a17.58,17.58,0,0,0,3.48,3.52c5.09,4.13,9.5,8.86,11.34,15.36.82,2.92,2.1,4.16,5.33,3.34,4.3-1.08,7.93-.22,10.84,3.79,1.65,2.29,4.32,5.15,7.47,4.13,5.69-1.83,7.66,1.77,9.18,5.6,2.82,7.11,5.55,14.22,9.87,20.6a9.41,9.41,0,0,1,1.81,5.45c.22,11.82,1,23.68,4.82,34.94,1.62,4.75,3.26,8.64-1.64,12.19a4.75,4.75,0,0,0-1.15,2.18c-3.66,9.67-8.91,18.56-13.67,27.68-.67,1.28-1.22,2-.09,3.44,3.15,3.92,4.23,8.56,4.26,13.53,0,2.17.17,4.38,2,6,8.86,7.69,14.5,18.67,25.56,24.22,6.77,3.39,12.47,9.24,21.07,7.43,1.89-.4,3.39,1.16,5.07,1.82,3.18,1.24,6.72,3.9,9.86,2.09,7.17-4.13,14.28-8.65,19.4-15.39,4-5.2,8-10.26,13.44-13.95,2-1.35,4.65-2.52,6.52-1.32,1.69,1.07,1.77,3.72,1.14,6.14-1.13,4.32-2.74,8.86-2.36,13.14.44,4.94-1.23,8.5-3.34,12.58-3.23,6.21-9.07,11.87-7.55,19.55,1.65,8.31-1.52,14.41-6.68,20.15-.55.61-.94,1.36-1.46,2-1.31,1.58-1.12,2.7.54,4.09,18.66,15.66,35.24,33.51,53.09,50,6.21,5.74,12.8,11,17.44,18.1,9.85,15.07,17.66,31.21,25,47.62,8.42,18.68,16.31,37.49,21.61,57.32.83,3.13.55,6.67,3.12,9.24,12.6,12.59,25,25.34,40.59,34.49,7.28,4.27,15,8.38,20.71,14.64a158.13,158.13,0,0,1,26.38,40.4c14.9,32.38,25.83,66,30.85,101.37,1.15,8.11,3.63,15,11.58,18.91,2.61,1.29,4.69,3.68,7,5.63,16.29,14,29.17,31.2,41.73,48.21a196.46,196.46,0,0,1,32.93,70.57c.9,3.71,2.5,7.69,1.91,11.24-1,6.15,2.64,7.23,6.85,8.46v228c-11.49-1.33-23.11-1.25-34.55-3.23-8.11-1.4-16.19-2.46-22.88-8-1.46-1.22-4-1.67-6-1.57-13,.69-23.61-4.64-32.51-13.31-4.79-4.67-10.9-8-14.37-14.06-.74-1.27-2.27-1.2-3.57-1.49-9-2-18.25-1.4-27.34-.91-22.91,1.25-45.1-1.43-66.39-10.29-3.22-1.34-6.33-3-9.58-4.19a542.51,542.51,0,0,1-58.73-26.3c-10.75-5.6-16.93-16.15-25.08-24.5-9.74-10-17.57-21.74-27.51-31.62-1.76-1.76-3.57-4.48-5.63-4.75-6.67-.89-12.31-4.29-18.32-6.68-8.43-3.36-17-6.85-22.62-14.67-3.2-4.46-6.32-9-9.4-13.52-7.35-10.79-13.18-22.74-24.26-30.62-8-5.71-14.58-13-21.19-20.23-14.46-15.86-29.07-31.58-43.55-47.43-1.54-1.69-2.51-1.46-4-.14-12.77,11-25.2,22.28-37.43,33.84-1.47,1.39-2.48,3.06-1,4.81,5.8,6.9,8.47,15.32,11.39,23.55,2.38,6.71,4.92,13.91.88,20.67-2.93,4.9-5.18,10.26-9.82,14.26-5,4.31-4.17,7.1,1.66,9.88a29.14,29.14,0,0,1,6,3.55c29,23.84,56.33,49.36,80.74,78,14.48,17,30.8,32.33,44.11,50.31a26.23,26.23,0,0,0,7.92,7.35,118.52,118.52,0,0,1,25.48,19.74c4,4.14,7.12,9,12.15,12.36,12.65,8.41,20.81,20.85,28.55,33.55.34.56.66,1.15,0,1.72H364c.39-3.9,3.41-6.47,5-9.75,13.13-26.58,21.54-54.75,28.81-83.34,3.08-12.12,5.91-24.24,6.17-36.83a33.33,33.33,0,0,1,8.09-21.94c2.92-3.37,6-6.75,8.17-10.62,7.7-14,16.36-27.29,25.13-40.6,4.77-7.24,9.65-14.25,12.44-23.19,4-12.81,11.45-24.64,18.9-36.09.63-1,1.59-1.75.19-2.9-3-2.44-4.38-6.16-7.45-8.65-5.07-4.12-7.05-10-7.27-16.4-.23-6.7,1.26-13.2,3.33-19.57,2.82-8.73,7.38-16.2,15.79-21.12-5.25-2.73-9.95-4.84-14.32-7.52a64.24,64.24,0,0,0-25.64-8.87,18.47,18.47,0,0,1-13.87-10.38,47.62,47.62,0,0,1-3.18-26.9,16.91,16.91,0,0,0-1.15-9.6c-6.25-15.42-11.59-31.17-17.48-46.72-5.35-14.13-10.46-28.53-19-41.11-3-4.37-4.29-8.21-3.95-13.32.29-4.38.56-9.3-3.15-12.61a71.27,71.27,0,0,1-10.72-11.79c-1-1.42-2-2.7-4-2.17-4.94,1.3-10.27,1.59-14.43,5-14.75,12.25-31.75,20.6-49.21,28-7.52,3.18-14.34,8.18-22.1,10.2a225,225,0,0,1-36.73,6.64c-15.56,1.36-31.11,3.15-46.72,3.8-6.74.29-10.08,3.6-12.44,9.27s-4.93,11.25-7.78,16.73c-5.9,11.36-16.57,18.32-24.59,27.69-.36.41-1.18.49-1.8.62-13.19,2.74-26.4,5.42-39.57,8.23-7.38,1.58-15.15-.36-22.3,2-6.77,2.26-13.41,1.86-20.17,1a5.83,5.83,0,0,0-5.73,2c-3.7,4.22-10.45,5.32-11.31,12.27-2.53-1.78-1-4.39-3.09-6-3.89,4.79-8.34,1.52-12.72.77C21.94,1205.16,10.5,1201.34,1,1193V943a8.77,8.77,0,0,1,2.81-.82c15.67.93,31.08,3.17,45.47,9.92,4.07,1.92,9.72,2,10.55,8.25.1.74,1.31,1.67,2.18,1.92,6.22,1.83,8.6,7.14,10.85,12.27a381.75,381.75,0,0,1,20.39,60c1.35,5.32,1.79,11,4.54,17.28,10.74-16.85,25.42-29.15,35.91-45.07,8.29-12.59,21.16-21.09,31.7-31.71a37.89,37.89,0,0,0,6.26-7.65c8.23-14.12,14.66-29.13,21.78-43.8,5.38-11.08,7.73-21.73,4.44-33.95-5.21-19.4-8-39.51-18.36-57.26-7.52-12.89-14.59-26-20.17-39.88-3.47-8.62-7.52-17-11.31-25.48l0,0c3.83,5.19,8.68,9.56,11.32,15.7,3.87,9,8.08,17.88,12.4,26.68,5.13,10.46,10.94,20.6,15.71,31.21,8.09,18,12.58,37.09,16.38,56.35a66.83,66.83,0,0,1,1.28,17.4c-.12,1.79-.77,4.7-2.94,3-3.37-2.6-2.87.56-3.39,1.74-5.64,13-10.93,26.11-17.82,38.48-5.48,9.84-8.07,29.44,5.65,38.66,1-1.53-.63-4,2.37-5.64a100.88,100.88,0,0,0,2.29,15c3,15.32,5.63,30.74,8.35,46.13.58,3.28,1.47,5.55,5.46,3.45,27.84-14.65,57.7-25.06,85.11-40.61,6.26-3.56,12-7.69,16.18-13.72.84-1.21,1.92-2.87,3.13-3.11,5.74-1.13,7.88-5.85,10.27-10.08,7.78-13.76,14.08-28.26,20.86-42.53,11.43-24,25.07-47,35-71.84,6.65-16.68,13.85-33.15,20.76-49.73a9.31,9.31,0,0,0,.78-3.38c.12-9.31.15-18.62-.54-27.93-.48-6.48-2.3-12.57-4.7-19,1.24.23,1.88.15,2.13.43,7.08,7.87,16.09,13.27,24.52,19.44,3,2.17,5,2.26,7.18-.46,3.78-4.61,7.87-8.93,11.28-13.9,2.29-3.34,1.92-5.48-.22-8.38-7.9-10.69-20.29-15.89-29.82-24.57a2.92,2.92,0,0,0-1.85-.51,21.88,21.88,0,0,1-16.87-7.54,84.61,84.61,0,0,0-15.31-13.83c-8.19-5.58-17.18-8.94-26-12.73-3.62-1.55-4.66-2.84-3.13-6.56a71.37,71.37,0,0,0,4.13-16.31c.18-1.19.68-2.87-.76-3.63-1.24-.65-2,.83-3,1.33-10.53,5.23-20.82,10.84-33.3,10.26-3.62-.17-8.2.7-10.87,3.66a41.58,41.58,0,0,0-7.34,11.32c.94.14,1.57.28,2.2.32,9.91.6,19.05,3.09,27.25,9.17,6.53,4.84,13.26,9.57,20.79,12.82,13.59,5.87,25.45,14.42,36.89,23.61,3.76,3,7.07,6.64,11.13,10.49-2.24.65-3.06.25-3.9-.34-6.57-4.57-13.63-8.26-20.63-12.12-5.22-2.88-10.84-4.86-15.83-8.54-7.58-5.59-16.22-9.83-24.65-14.18-11.08-5.72-21.12-13.53-33.57-16.56-5.73-1.4-5.47-1.53-2.69-6.27A226.65,226.65,0,0,1,313,676.73c3.72-4.34,2.74-7.4-2.88-7.72a220.65,220.65,0,0,0-35.34.47c-14.29,1.48-27.9,6-41.67,9.8-7.9,2.17-16,4.24-21.73,10.41-3.25,3.51-6.31,6.64-11.14,7.52l-.81-.7c1.8-3.06,4.75-5.08,7-7.72.9-1,3.16-1.77,2-3.44-.94-1.4-2.74-.25-4.15.18-12.55,3.84-25.15,7.55-37.65,11.54-11.57,3.69-23.39,7.61-32.52,15.65-10.81,9.52-22.93,17.28-33.65,26.84A5,5,0,0,1,97.94,741c-3.78.31-6.42,2.51-8.93,5l0,0c1.8-.23,3.63-.35,5.41-.72q12.91-2.72,25.81-5.55c1.55-.34,3.15-.74,3.66,1.26.45,1.7-1.1,2.29-2.32,2.71a31.66,31.66,0,0,1-5.76,1.55c-22.68,3.34-44,11.46-65.76,18.16a7.48,7.48,0,0,0-4.92,3.86c-1.94,3.85-4.17,7.57-6.13,11.41-9.76,19.09-16.38,39.59-26.4,58.57C8.33,845.28,5.65,854.11,1,862Zm1569,584c.11.28,0,1,.61.37l-.68-.31c-.06-.33.12-1-.59-.44ZM908,275c-.31-1-.65-.67-1,0-6.88-4.16-13.22-9.09-20.41-12.87-7.82-4.11-15.16-7.79-24-3.11a19,19,0,0,1-5.76,1.48c-11,1.77-21.44,1-30-7.38L827,253a21.23,21.23,0,0,1,4.18,1.53c6.36,4,13.3,4.89,20.63,4.31,8-.64,15.42-3.72,23.31-5-6.74-8.34-8.86-13.93-7.75-21.46,1-6.47.79-13,.71-19.44-.08-7.33-.6-14.63-5-21l-.41-1.2c-.16.14-.48.37-.47.39.21.34.46.65.7,1,.39,2.11.84,4.22,1.15,6.35.28,1.94.4,3.91.59,5.86-4.28-8.58-7-17.47-14.14-24.46s-16.66-8.18-25.19-12.46c6.79,6.82,6.63,14.79,4.84,23a15.82,15.82,0,0,0,1.32,10.49,9.89,9.89,0,0,1,.24,9.3c-2.93-7.22-5.56-13.19-10-18.18C813,182.25,810.9,180.43,807.1,181c9.45,20.92,14.33,40.21,11.74,49.7-1.46-11.56-4-21.43-6.57-31.28-2.9-11-11-23.69-15.95-25.16a144.75,144.75,0,0,1-2.45,43.13c-1.5,7.26-3.76,14.34-3,22,.49,4.86,1.55,9.08,5.44,12.32a39.17,39.17,0,0,1,9.15,11.14c3.83,6.85,6.71,14.23,14.21,18.5,3.35,1.92,6,5.2,9.51,7.2,6.2,3.57,12.53,6.93,18.56,10.76,2.15,1.36,3.25,1.18,5.53.17,4.63-2.08,9.34-4.12,14.56-4.84a97.3,97.3,0,0,1,27.27.22c2.34.33,3.59-.43,3.89-2.58.35-2.46-1.7-1.88-3.06-2.1-.64-.1-1.28-.17-2-.27,2.41-5.12,7.11-2.22,10.93-3.35-4.9-14.24-15.93-18.74-29.78-19,15.46-2.66,25.69,3,31.41,17.22a6.77,6.77,0,0,0,3.94,4.05A30.58,30.58,0,0,1,925,301.41c-1.84-1.2-2.54-1.56-3.13-2.05-7.45-6.18-15.29-8.9-24.48-3.47-2.8,1.65-6.14,1.28-9.3.85-9.91-1.33-19.51-.5-28.69,3.75-5.47,2.54-10.62,3.43-16.37-.26-8.62-5.52-18.18-9.61-25.5-17.07l8.88,14.41c-.2.23-.4.44-.61.64-9.09-8.5-14.53-19.55-20.8-30-3.69-6.14-7.89-11.69-13.91-15.89l7.34,18.3-.58.53c-3.76-5.57-6-11.82-8-18.16-2.23-7.16-7.09-11.87-13.64-15.74.57,2.74,1.11,5,1.47,7.23.28,1.77.93,3.79-.84,5.1-2.28,1.7-2.74-1.65-4.51-1.91-1.13,6.1-2.41,12.09-3.95,18.05-1.61,6.2-4.58,12-3.34,19a83.88,83.88,0,0,0,7.23,21.6,3.42,3.42,0,0,1,.1,1.27c-1.55.82-2.6-1.8-4.13-.34.18,2.12,1.69,3.6,2.42,5.43,1,2.49,4.25,3.91,3.38,7.25-3.47-1.75-4.66-5.39-6.8-8.24-.82-1.09-1.07-3.17-3.18-2.18-5.78,2.69-11.33.94-16.91-.68l-.55-.43.42.56c.41,2.26,2.16,3.75,3.46,5.4,6.36,8.07,14.24,13.5,25,13.06,1.36-.05,4.1.8,3.54-2.47,2.85-.86,3.87,1.74,5.9,2.62-1.06,1.52-2.36.8-3.4,1.13-11.33,3.54-20.79.34-28.79-8.12-6.26-6.62-11.28-14.15-16-22.1-.33.52-.48.64-.47.75.28,3.64.89,7.28.76,10.9-.09,2.53,2.75,6.55-2.69,7.22,0,0,0,.32,0,.48-.88,5.34,0,10.78-2,16.14-2.25,6.08,0,12.18,2.8,17.61,8.23,15.93,14.5,21,30.59,21.05,2.81,0,5.61-1.65,9,0-3.76,2.14-7.3,3.41-11.17,3.27s-7.79,0-11.33-1.15c-3.3-1-6.13-3.59-9.92-5.94,3.47,4.52,7.27,7.21,11.1,9.88,1.17.81,2.22,2.07,3.83.36,1.19-1.27,12-.87,12.55.55,1.54,3.66,3.8,3.27,6.73,2a53.87,53.87,0,0,1,8.93-3.16A11.33,11.33,0,0,1,796,381.09c-6.26-.15-12,.82-17.58,4.59,4.86,3.27,10.41,4.68,14.22,8.82,4.51,4.9,10.09,6,16.37,4.45.13,2.8-5.86,2.61-3.36,6.76a3.49,3.49,0,0,1-3-.35C801.33,404.13,800,403,798,403l-.25-.24.3.19c4.46,8.09,8.79,15.83,6.44,26.05-1.47,6.42.78,13.46,1.06,20.2.22,5.32,3.4,10,2.44,15.56,4.72.55,6.47-4.91,10.66-5.24a6.36,6.36,0,0,0,.61.66c-.92,3.95-5.51,5.4-6.88,9.69,11.2-7.5,11.2-7.5,14.48-6.41-6.86,4-13.6,7.9-15.47,16.2,2.57-5.18,7.45-8.38,11.56-12,5.58-4.92,6.41-6.12,4-13-.78-2.25-1.72-2.87-4-1.82-4.83,2.2-6.22,1.35-6.41-3.88-.07-2.13.58-4.28.69-6.43.27-5,3.92-10,0-15.07a2.05,2.05,0,0,1,.13-1.84c2.62-4,0-7.48-1.54-10.64-2.31-4.73-1.46-10.11,3.51-14,.2,3-1,5.4-1.88,7.75-1.25,3.28,1.64,4.74,2.5,7.06,3.39,9.15,10.48,15.58,16.93,22.41a9.15,9.15,0,0,0,7.22,2.93c1.81-.12,2.73.75,3.45,2.26,2.07,4.33,4.29,8.59,6.31,12.95,1.53,3.28,1.17,6.13-1.51,9-5.63,6.09-6.62,13.8-7.34,22.43,5.21-2.88,8.68-6,11.16-10.31A131.72,131.72,0,0,0,868.28,451c2.76-8.7,4.28-19.2,12.66-25.66.92-.71,1.17-2.33,1.66-3.56a12.06,12.06,0,0,1,4.2-5.38c9.35-6.88,17-15.87,27-21.92a2,2,0,0,0,.95-2.15c-.2-.91-.86-.8-1.54-.63-8.41,2.12-17.09,2.1-25.64,3-8,.82-16.22,2.63-23.31-3.27-2.06-1.72-4.37-1.6-6.56-.49-4.47,2.26-7.31,1.62-9-3.6-1-2.91-3-5.57-5-8-6.52-8.29-4.22-15.92,1.19-23.61,2.48-3.52,4.5-7.37,6.69-11.09.67-1.14,1.39-2.25-.19-3.44s-2.69-.91-3.87.42-2.57,2.28-3.33,3.7c-3.62,6.75-9.29,11.73-14.7,16.86a33.11,33.11,0,0,0-8.93,14.75c-.68,2.23-2.74,5.05-.4,6.91,1.8,1.44,3.35-2,5.87-2.2-.5,4.15-6,6.23-4,11.38.68,1.74-2.25,4.32-4.51,5.7-1.14-1.52,1-2.69-.23-3.86-2.69,1.69-3.62,6.7-8.36,4.24-.76-3.26-2.39-4.93-6.16-5.16-5.12-.31-9-3.44-12.35-7.14a42.47,42.47,0,0,0,14,5.22c3,.48,4.64-.41,5-3.68.56-4.61,1.32-9.22,2.29-13.76,1.18-5.63.25-7.19-5.53-7.52a17.72,17.72,0,0,0-6.91.61c-6.72,2.45-14.34-.68-20.71,3.83a37.65,37.65,0,0,1,39-10.34c3.32.94,5.19.72,7.37-1.6s4.33-4.53,2.15-8.08c-1.42-2.3-2.57-4.76-4.41-8.21,4.86,2.77,5.87,6.75,8.09,11.1a59.65,59.65,0,0,1,5.23-5.88c2.76-2.39,6-6.35,3.64-8.43s-2.91-5.73-7.26-6.33c-6.24-.85-12.44-2.63-18.69-3.95,8.34-2.87,16.16-.15,23.67,2.6,3.88,1.42,5.9.88,8.57-1.85,5-5.09,9.33-10.92,15.82-14.39.76-.41,2.15-.75,1.59-2.08-.48-1.14-1.73-.91-2.65-.68-1.44.36-2.8,1-4.22,1.45-5.16,1.51-10,4.17-16.14,4.24,2.5-2.49,5.42-2.89,7.87-4.19s5.61-1.32,8.29-3.65L844,305.81c6.81-3.73,18,.59,25.37,9.18-9.82,4.26-20.84,14.63-23.32,24.56,2.3-4.91,5-3.29,8.78-1.76,4.66,1.92,3.64,3.44,1.23,6.28a75.81,75.81,0,0,0-13.14,21.07c-1.06,2.67-1.28,5.15.15,7.66,2.06,3.6,4.1,7.23,6.29,10.76a22.43,22.43,0,0,0,3.71,4.67c1.67,1.55,3.72.7,4.9-.65,1.36-1.54-.89-2-1.6-2.9a66.51,66.51,0,0,0-5.59-6.37c-2-1.94-1.68-3.62.35-4.84,7.18-4.32,10.61-14.2,21.11-13.47-1-1.61-2.92-1.12-3.25-2.77,8.15-.47,18,2.7,23.94,7.52,2.19,1.75,4.44,3.89,7.33,4.09,7.13.49,13.53,3.18,19.9,6,2.44,1.11,3.92.89,5-1.9,2.63-7.09,8.1-11.8,14.51-15.07,3-1.51,2.75-2.75,2-5.12-1.53-4.72-2.9-9.49-4.34-14.24,4.67,4.84,6.67,10.69,7.63,17,.28,1.8-.41,3.09-2,3.5-4.63,1.2-7.53,4.76-10.68,7.82-3.67,3.57-1.34,3.12-.16,6.82,1.53,4.82,5.44,5.33,8.52,8.11-4.34.75-7.82-.56-11.36-1.28-2-.41-4.05-.92-4.85,1.82-.74,2.52.81,3.8,2.78,4.56s4.12,1.22,6.19,1.8c.8.23,1.76.4,1.58,1.5s-1.2,1-2,.94c-2.14-.27-4.26-.77-6.4-1s-5.1-.89-5.45,2.54,2.48,4,5,4.28c2.81.27,5.67,0,8.49.13,3.56.19,7.6.95,8.9,4.34,2.37,6.13,7.68,9.43,11.79,13.83,2.33,2.5,5.93,3.4,9.61,3.54,6.73.27,13.37,1.66,21.28,1-8.39,4.11-30.09,2.83-36.25-5.88-.81-1.13-1.74-3.4-3.85-2s-3.79.62-5.74.3c-5.08-.84-10.15-1.71-15.35-1.31-7.13.55-9.64,3.75-8.13,10.59.16.72.93,1.61-.11,2.16a1.63,1.63,0,0,1-2.2-.64c-1.36-2.79-3.88-5.11-4.23-8.26-.49-4.4-2.73-4.47-5.83-2.84q-6.86,3.6-13.57,7.45a8,8,0,0,0-4,4.81c-2.59,8.45-4.44,16.89-3,25.82.81,4.93.85,10.17,8.79,8.15-2,5.39-3.7,9.87-5.39,14.36-.48,1.27-1,2.53.23,3.67s2.47.52,3.57-.33c8-6.15,17.15-10.08,26.15-14.41A46.08,46.08,0,0,1,929,458c6.72-1.29,13.23,1.38,19.78.18,11.75-2.15,23.66-3.22,35.31-6.17,6.84-1.73,14.12-4.31,21.26.24,11.42,7.28,13.2,19.22,15.25,30.95.39,2.22-1,5.37-4.19,5.08-4.31-.4-2.33,1.95-1.55,3.26,1.72,2.84,3.86,5.42,5.7,8.2,3.29,5,5.1,9.89.67,15.44-2.78,3.48-4.73,7.62-7.18,11.39-1.26,1.92-2.36,4.14-4.88,5.1-.84-2.53.54-3.9,1.51-5.41,3.09-4.74,6.29-9.39,8.69-14.56,1.76-3.79.77-10.31-3.1-11.12-5.75-1.21-7.21-5.71-10-9.34-2.3-3-4.77-4.54-9-3.48-8.85,2.23-17.81,4.17-26.82,5.64-7,1.15-14,3.55-21.2,2.54-11.25-1.57-22.48-1-33.74-.6-3.79.12-7.1,1.61-10.39,3.24-2.72,1.36-2.7,2.62,0,4,4.77,2.34,9.47,4.79,14.23,7.16,11.53,5.73,23.24,8.76,36.54,6.6,12-1.94,24.22-.73,35.53,4.75,1.83.89,5.35,1.47,4.73,3.54-.89,3-3.44-1.49-5.53.14,2.38,1.91,5.08,2,7.88,2.19a84.53,84.53,0,0,1,8.94,1.6c-8.7,6.74-23.68,4.37-27.64-4.54-1.81-4.07-4.2-4.43-7.34-4.63-4.48-.28-9-.12-13.48-.32a4.89,4.89,0,0,0-4.38,1.84c-3.08,3.85-7.45,6.61-9.37,11.48-.51,1.32-1.46,3.56-3.59,2.7-6.4-2.6-13.17-1.31-19.72-2.12-.25-.15-.49-.32-.74-.44-.07,0-.2.09-.3.13l1.09.25a11.64,11.64,0,0,0,4.92,7.13c5.59,4.11,8.82,9.89,11.73,15.89,1.58,3.27,1.93,7.5,4.26,10,2.75,2.93,6.89-.16,10.46-.16,15.32,0,30.64.37,46-.74,4.16-.3,7-1.09,9.71-4.35,1.89-2.25,1.38-4.21,1.41-6.52.06-5,.43-9.91.65-14.86,0-1.19-1-3,1.14-3.07,1.72-.05,1.63,1.79,1.8,3.07.65,4.72-1.54,9.11-1.81,14.63a55.19,55.19,0,0,1,16.41-10.38c2.07-.91,2.83-2.57,3-4.78.61-10.62,1.52-21.23,1.85-31.86.22-7-.46-13.9-3.15-20.51-.88-2.16-2.88-3.66-3.07-6.18a72.76,72.76,0,0,0-6.74-25.43c-.41-.89-1-2,.15-2.66,1.32-.77,2.3.18,2.79,1.26,1.17,2.56,2.12,5.22,3.24,7.81,2.48,5.73,2.7,12,4.24,18a25,25,0,0,0-1.89-12.32c-2.72-6.72-1.94-12.28,2.87-18,7.26-8.58,10.49-18.3,6.92-29.81-1.83-5.9-7.59-8.2-9.68-13.7-2.23,2.52.35,4.8-.53,7a3.92,3.92,0,0,1-.92-.46,1.55,1.55,0,0,1-.56-.8c-1.34-9.74-8-10.75-15.9-9.72-2.09.27-4.21.22-6.32.32-.13,3.37,1.53,5.87,3.15,8.37,1.19,1.83,2.84,3.78,2.2,5.91-1.05,3.53.7,5.57,2.42,8.29,2,3.15,5.65,6.78,1.68,11.54a13.66,13.66,0,0,1-1.27-2.06c-1.93-5.09-4.92-6.66-10.5-4.73-5.29,1.82-9.44,5.54-14.58,7.41-2.41.87-4.71,3-8.11,1.32,5.78-5.53,11.48-10.3,18.45-13.28,4-1.73,7.78-8.27,5.84-11.92-3.58-6.72-4.43-14.54-9-20.87-2.38-3.3.1-7.68,5.5-13,3.37-3.31,3.63,1,5.29,1.72a8.46,8.46,0,0,0,3.85.68,12.89,12.89,0,0,1,6.82,1.18c6.73,3.63,13,2,19.26-1.3.8-.43,1.48-1.46,3.26-.42-4,5-9.93,6.25-16.38,9.36a21.18,21.18,0,0,0,3.38,0c7-1.82,12.59-6.07,17.42-11.1,5.69-5.92,4.79-12.26-.83-18.18-6.38-6.7-14.16-11.55-21.24-17.32-2.55-2.07-6.17-2.37-8.24-5.38a86,86,0,0,0-17.19-18c-5.56-4.48-9.8-13.56-20.21-7.95,17-16,32.8-32.18,38.73-55.84.79,2.76,0,4.6-.49,6.54-2.28,9-7.86,16.38-12.19,24.36a1.55,1.55,0,0,0-1,2c-1.92.06-2.6,1.15-2.75,3.11,2-.41,2.18-1.93,2.75-3.11a2,2,0,0,0,1.1-1.91c2.58-1,3.61-3.78,5.71-5.23,2.61-1.8,4.06-5.69,8.22-4.88-1.36,2.56-3.67,4.25-5.66,6.23-4,3.94-8,7.83-10,13.75,3-.21,5-1.89,7.2-2.85,3.21-1.39,6.58-2.11,9.72-.83,3.76,1.52,6.8.44,9.92-1.28,10.66-5.88,21.12-12,29-21.36,2.53,1.2,1.77,4.17,3.37,5.15,9.14-13,13.68-27.59,15-43.26-1.86,2-2.73,4.67-4.53,6.36-9.36,8.75-18.44,17.83-29.12,25.05-1.58,1.07-3.67,1.7-3.9,4.08l.06-.06c-4,.34-6.67,3.89-10.69,4.4-2.36.3-4.52-.23-6.78-.39-3.55-.25,0,5-3.59,5-1.16-1.62.28-2.79.8-4a87.5,87.5,0,0,0,5.84-19c1.28-7.33-1.88-20-10.61-23.87-4.68-2.09-8.59-5.63-9.14-11.08a34.76,34.76,0,0,0,3,4.13c5.13,5.42,12.25,8.58,16.72,14.81,1,1.44,3,1.15,4.65,1.35,8.34,1,16.52-.84,24.78-1.33v0c-8.53,2.33-17.1,4-26,2-1-.23-3.73-1.37-2.9,1.47,2.64,9,.78,17.4-2.51,25.69-1.17,3,.41,3,2.47,3,4.22,0,7.59-2.15,10.85-4.47a307.88,307.88,0,0,0,29.86-24.58c2.65-2.42,5.47-4.39,6.26-8.31-5.21-.3-8.21,3.09-11.7,5.43a3.19,3.19,0,0,1-.4-.33c.55-.81,1.71-1.78,1.54-2.39-.39-1.42-2-1-3-.83-14.08,2.23-26.06-4.17-38.56-9.11a91.33,91.33,0,0,0,8.94-3.81c6.23-3.45,13-6.11,18.11-11.3,1-1,2.7-2,2.1-3.63-.54-1.49-2.34-.82-3.57-1-3.12-.54-6.25-1.36-9.37-1.36-5.43,0-10.39-3.33-16.11-1.53-11.42,3.61-22.74,7.35-32.95,13.84-1.31.84-2.51,2.25-4.84,1.81,10.54-9.43,23.61-12.87,37.63-17.44-5.6-1.7-10-1.68-13.93-3.5-16.08-7.46-33.86-.15-43.76,9.22-6,5.65-8.93,13.93-11.06,22-2.6,9.93-3.15,20-.38,30.06-2.32-4.07-2.78-8.44-2.9-12.94-.35-13.17,3.2-25.17,9.76-36.56,3.62-6.28,10.28-10.51,11.89-18.06.35-.39.71-.82,0-1.18-.13-.07-.52.31-.78.49-2,.61-3.13,2.4-4.6,3.7-2.48,2.2-4.79,4.62-8.07,5.66-1.22.39-2.6,1.09-3.64-.3-.87-1.16-.17-2.21.53-3.17a5.13,5.13,0,0,0,1.1-4.85,93.06,93.06,0,0,1-7.72,7.77c-7.05,6.55-16.79,10.2-21.32,19.49l-.09-.08c.7-3.82-.61-4.54-4.26-3.35-11.77,3.83-22.25,20-20.66,32.34.48,3.76,2.48,7.89,1.49,11.16-1.37,4.51.47,6.48,3.5,8.18,3.29,1.85,6.55,4.29,7.85,7.37,2.43,5.74,7.42,8.17,11.71,11.71a34.37,34.37,0,0,1,12.18,21.93c-2.1-1.92-6.9-1.09-4.69-7.13,1.19-3.27-2.78-7.76-7.15-9.72-7.46-3.35-11.39-10.19-15.89-16.43l1,0,1,1a1.38,1.38,0,0,0,.23.39c0,.05.21,0,.32,0L909,276C909,275.33,908.62,275.05,908,275Zm-46-91-.18-.22.21.19a1.77,1.77,0,0,0,1.93,1.07c4,8.62,8.67,17,8.17,27.82,13.21-13.58,24.1-3.74,35.61,2.13-2.49-7.09-9.49-10.43-12.47-16.8a45.69,45.69,0,0,1,13.44,14.64c.58,1.05.7,3.22,2.48,2.35,6.68-3.25,14.27-4.75,19.78-10.29a2.24,2.24,0,0,0,.64-2.62c-1.89-5.27-3.34-10.87-6.57-15.41-9.69-13.64-23.53-20.95-39.71-23.38-11.07-1.67-22.36-1.9-33.55-2.77,6.08,4.74,11.75,10.07,19.55,11.74a12.42,12.42,0,0,0,3-.05c4.82-.2,9.67-.83,14.45-.51,7.2.48,12.93,4.53,18.41,8.85-4.72-1.38-9.1-3.54-13.6-5.38-4.66-1.92-9.5-1.06-14.32-.5a9.91,9.91,0,0,0,2.2,1.29c.67.38,1.64.51,1.8,2.15-15.94-1.37-28.65-8.21-38.15-20.73-1.39.88.06,2.63-1.65,2.91-.83-1.37-.32-3.61-3.1-4.35,1.62,5.2,2.73,10.06,5.2,14.37,1.06,1.85,2.25,4.78,5.31,3.15,1.39-.74,1.77,0,2.39.62a53.12,53.12,0,0,0,15.45,9.89c1.19.53,2.89.73,2.94,2.69-3.11,1.15-4.94-2.09-7.64-1.87A2.11,2.11,0,0,0,862,184ZM404.05,725.93l.2.32L404,726a16.35,16.35,0,0,0-7.4-5.18C398.65,724.6,400.15,727.06,404.05,725.93ZM774,224l-.35-.47c0,.09,0,.21,0,.26a1.92,1.92,0,0,0,.35.18c4.08,3.89,8.5,7.45,11.9,13,.86-3.34,1.94-5.69-.52-7.41C781.9,227.13,778.5,224.4,774,224Zm15,142c5.06.59,9.88-.91,14.64-2.14,4.94-1.27,9.4,3.78,14.46.72-9.3-4-22.83-3.27-29.06,1.47l-.85.16.19.35Zm546,1004-.12-.11.14.11c4.45,5.77,9.75,10.85,13.49,17.2,1.15,2,2,5.2,4.28,5.12,2.74-.1.59-3.81,2.06-5.29,2.65-2.68.72-3.71-1.45-5.08C1347.21,1378,1341.13,1374,1335,1370ZM1059,336c-7.5,6.53-15.48,11.88-26.36,10.79,1.08.94,2.11,2,3.28,2.83,6.08,4.45,7.1,4.82,13,0,4.35-3.58,8.59-7.69,10.15-13.57l.51-.49c-.12,0-.28,0-.34,0A1.28,1.28,0,0,0,1059,336ZM836,96c.32.36,0,1.36,1,1l-1-1V94c7.14,7.77,12.93,16.23,14,27.14.14,1.48-1.17,3.51,1.09,4.31,1.77.62,7.43-3.73,7.95-5.62,3.09-11.21-2.84-19.73-8.22-28.52A55.74,55.74,0,0,1,843,71c1.17-.3,2.68-2,2.85,1,.1,1.65-.61,3.62,1.13,4.94l.16,1.81c.18-.09.5-.16.51-.27.08-.63,0-1.24-.69-1.53.56-14.89,3.25-29.27,11-42.79-5.21,0-7.54,4-11,5.78-.34-.31-.89-1-1-.88-4.83,3-10.75,5-13.08,10.64-3.78,9.16-3.43,18.7-1.84,28.38.91,5.61,4.6,10.2,4.92,15.89-3.25-4.83-6.06-9.67-7-15.71-1.17-7.21-.71-14.4-1.47-21.72-3.06,5.32-6.47,10.54-4.77,17.11C825,82.4,830.11,89.43,836,96Zm236.46,241.61c8.86.57,16-4,23.49-7.83-8.63-.58-16.36-2.65-21.47-10.22-1.09-1.61-2-1.32-2.87.27s-1.67,3.27-.54,5.11l-.22.22c-4,2.2-3,7.31-6.07,10.21-1.14,1.1-3,3.8-.48,5s5.75,1.43,7.46-2C1072,338,1072.25,337.8,1072.48,337.58ZM953,107c-.65,1.84-2.51,2-3.89,2.83-6.23,3.76-12.7,7.17-15.48,14.71-.69,1.87-1.21,2.84.81,3.85a42.64,42.64,0,0,1,9.84,6.74c1,.89,2.1,1.91,3.4.5,1.9-2.06,4.27-3.76,5-6.71,1.61-6.55,5.28-12,9-17.48,3.57-5.23,9.18-8,13.31-12.45,1.12-.25,2.66-.35,2.67-1.72,0-1.74-1.7-1.08-2.7-1.26a43.59,43.59,0,0,0-21.07,1.29c-13.44,4.34-12,4.92-14.19,16.2C943.73,110.25,947.87,107.61,953,107Zm-4,35c-3-1.26-7.6.7-9-4.11,1.3-1.27,1.87,1.33,3.18.18-2.49-2.83-5.89-4.32-8.76-6.52s-5.69-2.86-9-.56c-2.82,1.95-6.11,1.62-9.07.18-4.06-2-8.3-2.08-12.65-2-2.1.06-5,.46-4.73,2.41s3,3.38,5.47,2.79c5.44-1.31,10.93-.39,16.39-.68a14.38,14.38,0,0,1,9.52,2.5c-7.51,0-15.19,0-22.86,0-2.14,0-4,.29-4.48,2.83-.8.49-2.18.22-2.36,1.49s1.11,1.5,2,1.79c2,.69,4.57.94,5.79,2.7,4.24,6.08,11.69,6.74,17.47,11.46a25.15,25.15,0,0,0-19.68-16c-1.17-.2-2.83.53-3.22-1.46a9.31,9.31,0,0,1,5.88,0c3.73,1.18,7.33,2.8,11,4.19,6.25,2.37,13.5,2.05,18.81,7,2.64,2.44,4.44,6.17,9.53,5.72-2.68-4.84-.59-9.3.83-13.84.75-.15,1.66,1,2.22,0,2.87-4.9,5.65-9.85,5.1-15.83-1.79,3.4-1.44,8-4.92,10.2C949,138,948.8,139.69,949,142ZM896.78,263.21l.69.37c-.14-.2-.27-.41-.41-.62-2.49-8.71-2.55-17.61-1.95-26.55.08-1.26,1.14-2.6-.25-3.67-5.75-4.45-11.26-9.43-19.11-9.77-1.26-.05-3-.53-3.51,1.06-2.26,6.93-3.4,14.3.35,20.71C878,254,886.05,260.55,896.78,263.21ZM1272,1301c-.17-.82-.34-1.66-1.39-1.75-.17,0-.58.38-.55.47.34.89,1.17,1.06,2,1.23.24,1.59,1.36,2.65,2.35,3.75,14.79,16.39,30.1,32.26,47,46.48,7,5.86,14.12,11.53,21.31,17.13,1,.74,2.65,2.42,3.85.62,1.09-1.63-.74-2.24-1.85-3.28-4.49-4.26-10.24-7.36-12.73-13.53-1.47-3.64-2.33-7.85-7.34-8.52-.53-.07-1-.89-1.42-1.36-6.59-6.4-11.28-14.3-15.61-22.16-5.8-10.52-17.18-15.84-22.83-26.36-1.27-2.35-3.84-1.54-5.62.91S1276.41,1301.24,1272,1301ZM804,67c-.34-.52-.69-1-1.34-.35l1.05.74c.29,2.91,2,4.74,4.4,6.23C812,76,813.9,79.63,815.1,84c1.37,5-.67,9.89.11,14.8l-.33.3c-2.73-3.86-.39-8-.74-12.08-.44-5-1.78-9.26-6.42-11.9-1.12,1.22-.67,2.24-.5,3.14,1.23,6.88,1.82,13.6.21,20.68-1.81,8,6.08,19.65,13.87,22.12a50.08,50.08,0,0,1,18.15,10.13c1.63,1.45,2.32,1.65,3.87-.06,3.79-4.19,3.51-13.15-.18-18.38-7-9.91-17.44-17.23-21.08-29.73-1.5-5.18-3.66-10-1.86-15.36.79-2.34.08-3.47-2.1-4-5.41-1.34-10.84-2.35-16.66-1.46.93,2.71,3.15,2.88,4.79,3.81,2.26,1.29,5,2,5.8,5L812,71C809.2,69.9,807.15,67.39,804,67ZM904,480c-4.16,1.47-8,4.25-8.55,8.35s-2.37,3.65-5.48,3.48c2-3.29,3.78-6.15,5.53-9-4.56,1.66-11.73-1.15-11.57,7.4.05,2.28-2.16,2.81-3.83.73-2.38-3-5.26-4.28-9.08-3.07,4.5,1.22,8.8,3.17,11.12,7.13,3,5,6.43,4.79,10.54,2.29,12.49-7.61,26.1-9.89,40.44-8.51,10.42,1,20.84,1.79,31.32,2.1,5.33.15,10.17-2.21,15.48-1.85,4.67.33,9.12-1.41,13.63-2.41,1.2-.26,2.85-.67,2.11-2.61-.25-.65-.68-2-1.61-1.33-4.43,3.28-6.93-1-10-2.59-1.47-.78-2.37-1.66-3.72-.1-3.15,3.65-6.2,1.26-10.08,0,5.22-3.51,9-7.4,11.23-12.78,1,4.67,2,8.76,6.26,11.17,2.8,1.6,7.08,0,6.41-2.82-.83-3.52-.91-7.72-5-10.18-4.36-2.59-8.19-.3-12.3-.18-11.85.35-23.26,4-35.13,4.05-7.28,0-14.56,1-21.82.74-2.72-.1-4.82.08-6.85,1.72l-4.83,3.9c2.47,2.25,5.29,2.34,7.54.13,3.19-3.13,5.62-3.26,8.33.48,1.37,1.89,2.82,2.22,4.64-.25,4.88-6.59,7.8-6.72,14.14-1.26,5.29,4.55,5.89,4.51,11.07-.61,4.34-4.3,7.89-4.14,11.72.55,1.2,1.46,2.55,3.3,1,4.86s-3.68.91-5.16-.85c-2.26-2.68-4.13-2.07-6.63.07-4.08,3.5-8.1,3.25-12.15-.05-5.44-4.43-8.63-3.53-11.83,3-.93,1.91-.59,4.48-3.39,6.43,1.44-6.33-4.29-7.43-6.47-11-.37-.58-1.09-1-1.69-.41-3.66,3.53-7.7,6.11-13,6.13-.5,0-1,1.21-1.49,1.91q-1.23,1.88-2.36,3.82c-.67,1.16-1.35,2.83-2.86,2.12-1.75-.83-.46-2.34.11-3.41,1.35-2.48,2.84-4.88,4.27-7.31l.14-.08ZM742,299c1.65-.92,2.85.31,4,1a29,29,0,0,0,17,4l.37.16L763,304c-1.46-11.69-3.78-23.42-.07-35.05,1.85-5.82,2.23-11.89,4.38-17.77s6.83-12.15,4.1-19.43c0-.11.41-.42.71-.71,3.62.24,5.53,4.32,9.57,4.81-7.92-12.68-21.44-18-33.08-12.52,1.74.72,3.76.05,6,1.89-7.29-.27-14-.26-20.27,5.87,9.8-1.1,17.25,1,23,7.57a22.63,22.63,0,0,1-5.25-2.14,25.82,25.82,0,0,0-18.76-2.75c-1.84.44-3.49.84-3.59,3.34s.54,3.61,3.06,4.14c1.87.38,3.86,1.26,4.32,3.63l-.4.34c-2.28-.25-3.78-4-6-2.29-1.79,1.36.33,4,.48,6.05.07,1.16-.08,2.33,0,3.49.09,1.41,1,3.07-1,3.82-1.72.65-2.31-1-3-2-8.51-11.67-20.29-18.87-33.28-24.36-1.9-.8-4.56-3.6-5.95-.88s2.9,2.27,4.12,3.85l-.22.26c-3-.6-2.7.81-2.18,3,4.57,19.4,8.87,38.85,8.34,59-.3,11.67,4.8,19.93,15.49,25,6.15,2.93,12.07,6.53,14.14,14,1.41-6.73,2.3-13.31,3.43-19.83.43-2.48-5.22-8,2.74-7.94a2,2,0,0,0,.08-.94c-2.37-7.4,1.71-15.08-1-22.46l.19-.15c2.25,5.05,5.45,9.66,6.91,15.07,2.77,6.82,14,11.51,19.91,8.56C753.26,306,746.76,304.58,742,299Zm830,1150.07-.24-.63c0,.1-.08.23,0,.29a1.6,1.6,0,0,0,.35.28c.58,1.13,1.16,2.26,1.73,3.39l-1.08,1c-1.83-1.92-3.65-3.86-5.5-5.76-9-9.25-15.45-21-27.22-27.49-3.53-2-6-5.06-8.16-8.54a19,19,0,0,0-10.79-8.34c-8.23-2.51-16.41-5.16-24.11-9.26-4.31-2.3-9-4.35-14.2-4.28-2.85,0-4.39.88-3.47,4.25,3.92,14.45,7.65,29,14.69,42.32,1.22,2.31,1.66,4.93,4,6.75,10,7.84,19.31,16.48,30.27,23.12,8.75,5.3,16.65,12,25.44,17.24,10.26,6.11,21.08,11.23,31.36,17.39,5.5,3.3,10.91,7.26,17.32,9.12.45-1.56-.48-2.2-1.07-2.91-7.12-8.52-8.33-18.79-7.83-29.18.2-4-.52-7-3-9.91-2.68-3.17-5-6.66-7.88-9.64C1579.3,1454.87,1577,1450.34,1572,1449.05ZM1315,1236l-.39-.1.45,0c-.49,2.26,1.33,3.31,2.57,4.51,2.36,2.32,5.76,4,7.28,6.7,3.89,7,10.15,10.9,16.81,14.3,14.06,7.21,28.36,14,41.22,23.25,3.18,2.3,6.41,4.1,10.54,3.49.84-.13,2.07-.06,2,1.7a10.41,10.41,0,0,1-10-.33c-5.67-3.39-11.91-.63-17.7-2.29a4.59,4.59,0,0,0-4.79,2.18c4.72,1,7.77,3.22,5.92,8.52-.16.48.68,1.51,1.28,2,8.73,7.35,16.52,16,27.62,20.08,9.89,3.61,20.17,5.86,29.19,12,10.5,7.19,23,8.17,35.44,8,5.5-.06,11.09-.46,16.47.38a29.83,29.83,0,0,0,14.66-1.46c5.66-2,6.6-7.18,8.3-12.1,6.95-20.12,17.84-38.39,27.33-57.33,7.72-15.42,15.47-30.8,11.27-49.36-2.82-12.42-3.22-25.36-5.42-37.94-3.4-19.4-9.33-38.19-16.17-56.6-5.36-14.45-11.21-28.57-21.19-41-11-13.75-22.75-26.94-33.62-40.81-1.26-1.6-4.83-3.44-2.45-5.54,2-1.79,3.88,1.6,5.42,3.09,12.15,11.77,21.64,25.7,31.77,39.12,8.41,11.14,17.36,21.91,22.6,35,7.56,18.89,11.72,38.85,17.79,58.21,2.88,9.21,6.14,18.31,8.81,27.57.75,2.57,3.75,1.75,4.1,3.53.58,2.95-.92,6.29,2.24,8.73.74.56-.55,1.69-1.11,2.49-4.92,7-4.41,10.94,2,16.15,4.53,3.67,5.57,10.09,2.5,15.46-1.54,2.69.64,10.31,3.54,11.19,4.21,1.27,4,3.82,2.56,6.89a7.82,7.82,0,0,0-.78,5.3c.87,3.68,4.17,3.94,6.69,5.59,2,1.28-1.5,6.33,2.13,8.72a6.17,6.17,0,0,0,.85.51c2.58,1.16,2.81,3.59,2,5.52-2.25,5.13-2.22,9,4,10.87a2,2,0,0,1,1.13,1.46c-.06,6.08,3.79,10.61,5.87,15.87,10.56,26.71,20.86,53.52,29.3,81,.42,1.36,1,2.94,2.26.43.55-1.07,1.3-.55,2.07-.16,5,2.5,9,1.25,12.83-2.8,22.84-24.07,49.37-43.37,78.11-59.75,2.13-1.22,2.65-2.5,2.16-4.82a219.2,219.2,0,0,0-6.83-25.51c-4.14-12.06-10-23.19-15.8-34.42-6.77-13.17-12.77-26.79-21.89-38.62a244.06,244.06,0,0,0-61.06-55.94c-1.53-1-3.41-1.81-4.41-4.1,4.1-.12,7.07,1.81,10.15,3.35.91.45,1.88,1.16,2.79.61s.67-1.75.45-2.73c-2.89-13-5.74-25.91-8.69-38.85-6-26.28-15.86-51.18-27.15-75.55-4.76-10.27-9.36-20.75-20.81-25.69a19.84,19.84,0,0,1-4.48-3.17c-14.61-12.14-31.45-21.14-46.7-33.44.3,1.52.42,2.49.69,3.41a311.37,311.37,0,0,1,7,30.64c.49,2.73,1.2,5.62-1.44,8.9a48.79,48.79,0,0,1-1.49-5.18c-3.14-20.23-9-39.84-14-59.6-8.54-33.58-23.5-64.68-39.76-95.15-3.77-7.06-7.5-14.26-13.46-19.7-9.71-8.86-20-17.11-28.87-26.82-9.72-10.6-20.8-19.67-32.17-28.41-3-2.32-4.5-2.7-5.81,2.08-3.37,12.34-4.65,25.08-8.53,37.38-9.48,30-12.8,61.13-14.3,92.42-.69,14.28-1.42,28.58-2.37,42.81-1.14,17.19-5,34.15-8.58,51-.41,1.9-1.78,2.24-3,3.24,5,2.31,10.15,1.26,15.07,1.67,9.12.75,18.3,1.75,27.4,1.36,9.49-.41,18.95-.81,28.44-.45,2.22.08,5-.35,6.6,2.64-1.1.31-1.92.81-2.64.69-13.23-2-26,2.92-39,2.73-11.81-.17-23.62-.74-35.44-1.09-2.65-.08-5.55-.62-7.92.22-3.19,1.13-.94,4.76-2,7.06-.14.3-.21.63-.36.93-3.86,7.44-6,15.44-8.16,23.51a250.73,250.73,0,0,0-7.92,53.57c-.67,16.15-1.51,32.21-5.58,47.88-1.9,7.28-.94,13.12,3.63,19.41,7.3,10,8.27,21.61,3.94,33.25-1.08,2.9.29,3.53,2,4.53q13.15,7.69,26.34,15.34c2.16,1.26,4.4,2.41,6,5.39-4.08-.36-6.75-2.08-9.47-3.59C1333.56,1246.46,1324.3,1241.21,1315,1236ZM920.74,958c-1,7.56,2.77,12.19,6.88,16.43,6.14,6.34,10.78,6.82,18.4,2.56.87-.48,1.71-1,2.54-1.57A418.55,418.55,0,0,1,1009,941.6c12.39-5.57,24.38-12.36,33.38-22.35,8-8.93,14.68-19.27,22.16-28.82,14.74-18.81,25.12-40.37,38.3-60.15a4.87,4.87,0,0,0,.91-4.23c-1.59-5.45-3.28-11-6.81-15.46-7.67-9.68-13.67-20.35-19.76-31q-7-12.24-14.13-24.41c-1.79-3-5.51-4.8-5.4-9.16,0-1.87-1.88-2.29-3.37-1.17-4.62,3.48-10.29,3.57-15.55,4.9-2.75.69-4.07,1.66-4.61,4.7-1,5.87-2.4,11.73-5.75,16.89-5.35,8.25-13.33,12.13-22.6,14.12-2.77.6-6.13.44-7.29,4.18-1.12,3.56-3.74,4.6-7.37,4.48-6.61-.22-13.18-.7-19.51,2.6-2.51,1.32-4.11,4-7,4.42-7.16,1-13.72,3.91-20.41,6.38-1.55.58-4.36.94-4.46,1.69-.48,3.64-2.42,2.46-4.36,1.8-2.82-1-3.49-.33-2.69,2.75a15.82,15.82,0,0,1-1.26,11.17c-4.88,9.77-11.08,18.83-15.12,29.06-2,5.06.54,11.5,5.91,12.8,2.29.55,2.5,1,1.59,3.25a79.51,79.51,0,0,0-4.36,14.17c-2.7,13.19-2.06,26.63-.9,40,.5,5.85,3.49,11.29,3.2,17S919.15,952.86,920.74,958ZM86.55,1161.3a20.91,20.91,0,0,1,4.28-2.58c4.17-1.48,8.63-3.12,11.93-5.92,8.89-7.54,18.13-15,25.57-23.83a309.18,309.18,0,0,1,24.58-26.57,9,9,0,0,0,2.69-4.15c2.24-10.44,6.65-20.13,10.38-30,5.42-14.41,6.88-29.78,11.4-44.32a73.87,73.87,0,0,0,3-20.36c0-1.19-.57-1.35-1.31-1.68-3-1.34-5.88-1.31-8.35,1.06-5.2,5-10.32,10.1-15.48,15.15-11.94,11.69-19.38,26.39-27.33,40.77-2.49,4.5-4.84,9.86-9.13,12.18a20.82,20.82,0,0,0-7.43,6.83q-5.81,8.13-11.36,16.42a9.26,9.26,0,0,0-1.37,3.69c-1.13,6.89-1.78,13.87-3.26,20.68-2.55,11.78-1.68,24.2-6.76,35.53C87.71,1156.21,86.07,1158.15,86.55,1161.3Zm1503.17,355.07c-7.19-2.73-14.24-5-21.85-5.15-2,0-6.78,1.53-3.36-3.84.72-1.13-.9-1.86-1.82-2.56-7.24-5.52-14.63-10.8-22.11-16-12.38-8.59-24.18-18-36.37-26.89-3.65-2.65-7.34-5.45-12.66-4-3,.82-7,.21-8.82-2.19a96.38,96.38,0,0,1-10.59-16.66c-2.88-5.91-7.7-9.37-12.83-12.64a5,5,0,0,0-5.68.54c-8.42,6.58-18.17,6.26-27.55,4-8.27-2-16.87-3.62-24.46-8.26,7.66,7.8,13.63,16.81,20.34,25.2,13.4,16.74,29.18,30.18,48.83,39.24,16.62,7.66,34.2,12.79,50.82,20.42,8,3.65,16,7.47,25.06,7.75,5.15.15,10.2,1.34,15.29,1.93A99,99,0,0,0,1589.72,1516.37ZM985.83,584.58c-7,4.63-13.41,6.76-19.8,9.06-2,.7-3,2.17-4.12,4-5.26,8.83-8.91,18.43-13.56,27.52-6,11.81-10.85,24.11-15.8,36.33a243.23,243.23,0,0,0-10,31.2c-2.16,8.47-4.77,16.93-5.39,25.75-.13,1.93-.57,4.35,2.07,5,2.42.58,2.93-1.79,3.68-3.3,2.3-4.61,5-9.13,6.54-14,5.26-16.36,12.5-31.87,19.15-47.66,6.19-14.69,12.24-29.48,17.11-44.7a18.29,18.29,0,0,1,3.84-7.4c1,1,.57,1.92.31,2.88A299.26,299.26,0,0,1,956,648.17c-10.07,23.6-18.8,47.65-27.58,71.72-1,2.68-1,3.63,2.21,4.14,9.21,1.46,18.34,3.36,26.06,9.19,1.21.91,2.45,1.76,3.19-.82,2-6.88,6.6-12.18,11.44-18.18-4.56,1.62-9.1.53-12.66,3.71-1.09,1-2.61,2.91-4.26,1.62-1.31-1-.77-3.15-.58-4.76,1.63-13.52,3.35-27,5-40.55.91-7.34,3.64-14.12,6.26-22.44,1.48,3.69,1.53,6.15.94,8.48-2.7,10.69-3,21.71-4.67,32.54-.76,4.92-1.29,9.87-1.87,14.82-.28,2.49.48,3,3.13,2.3,4.69-1.27.94-7.28,5.23-8.47-.65-6.66,1.69-13,2.8-19.33,2-11.76,7-22.79,9.7-34.45,1.4-6.06-.57-12.8,3.41-18.2,2.84-3.84,3.31-8.17,3.75-12.61,0-.35-.46-.76-.64-1-1.8.06-.88,3.06-3.35,2.45C984.25,607.55,985,596.83,985.83,584.58ZM878.2,92.27a8.2,8.2,0,0,1-1-2.13c-1.8-12.85-3.28-25.7-1.79-38.73A194,194,0,0,0,877.12,26c0-1.61.35-3.8-2.58-2.19-5.86,3.22-11.17,7.11-14.62,13C853.36,47.94,850.72,60.25,850,73c-.42,7.62-.28,15.24,5,21.66A28.24,28.24,0,0,1,861.1,118c-.17,1.07-1.07,3,1,3.26,1.41.21,2.34-1.09,3-2.33a92.28,92.28,0,0,0,6.25-16.81c.69-2.53,1.12-5.28,3.68-6.93a111.56,111.56,0,0,1-8.44,26.31c7.3,1.16,14.27,2.29,21.25,3.35,1.77.27,3.87.9,4.19-1.94.54-4.75,1.75-9.4.44-14.32C889.15,96.33,884.28,84.7,880,72.87c-.68-1.84-1.31-3.4-.54-6a34.5,34.5,0,0,1,2.76,5.45q4.61,13.17,9.64,26.18c.87,2.24,2,5.78,3.94,5.83,2.59.06,3.55-3.46,4.71-5.8,2.65-5.33,3-10.84,2.72-16.85-.24-4.7-1-8.19-4.75-11a41.28,41.28,0,0,1-12.85-16.26,115.46,115.46,0,0,1-5.67-15.7C877.74,56.47,877.68,74.18,878.2,92.27ZM87.25,1190.44c16.37-.38,32.42-1.74,48.36-5.26a41.74,41.74,0,0,0,24.91-16.1c3.59-4.69,9.36-9.61,5.77-17.18-.23-.47.6-1.41.89-2.15,2.76-7.13,7.95-13.61,5.66-22.51A360.42,360.42,0,0,1,87.25,1190.44Zm708.3-365.38q10.89,9.33,21.78,18.66c6.79,5.87,14.35,11.09,20.12,17.84,8.74,10.22,16.22,21.53,24.29,32.33.73,1,1,2.92,2.65,2.53s1-2.22,1.06-3.44c.59-10.27,2.42-20.41,3.07-30.69.34-5.39,2.48-10.69-2.06-15.32-1.78-1.81-3-4.48-6.49-3.07a6.07,6.07,0,0,1-4.86-.41c-4.18-2.16-9-1.53-13.43-3.1-7.44-2.61-14.95-5.17-22.18-8.23C811.78,828.89,803.73,827.06,795.55,825.06ZM761.86,458.88c-.78-3.17-3-4.29-4.5-6a19.08,19.08,0,0,1-4.47-8.73c-2.15-9.46,1-17.92,5.57-25.63,3.21-5.43,5.52-11.36,9.25-16.45,1.69-2.3.64-3.24-1.26-4.38-2.7-1.63-5.28-3.46-7.88-5.24a1.79,1.79,0,0,1-.89-2.12,1.83,1.83,0,0,1,2.44-1.13,18.39,18.39,0,0,1,3.18,1.32,82.47,82.47,0,0,1,25.66,20c4.36,5.07,5.39,9.79,2.37,15.78a46.16,46.16,0,0,0-3.16,8.38c-.87,3.11-.08,5.07,2.06,7.49,3.29,3.72,7.74,6.66,9.15,12a27.92,27.92,0,0,0,.22-11.29c-.67-4.52-3-9.1-.78-13.69,3.81-8,1.14-15-3.25-21.72-1.71-2.61-2.46-6.92-5.41-7.41-3.81-.63-5.66-3.17-8.2-5.13a93.64,93.64,0,0,0-19-10.89c-4.35-2-5.53,2-7.42,3.94-1.23,1.25-2.69,4.28,1.28,5.19.84.19,1.1,1.15.95,2.06-1.28,7.84-2.53,15.56-7.72,22.18-4.56,5.83-6.1,13.22-6.83,20.3-.65,6.26,5.84,9.58,9,14.24A15.52,15.52,0,0,0,761.86,458.88ZM738.4,587.74a5.41,5.41,0,0,0,4.72-1.64A72.36,72.36,0,0,0,756,571c5.28-8.43,10.44-16.93,15.85-25.27,1.88-2.91,4.43-5.38,6.5-8.18s1.18-5.63-.78-7.75-3,.85-4.5,1.5c-4.61,2-7.22,6.21-10.76,9.4-12.06,10.86-20.5,24.39-28.63,38.13C730.52,584.11,732.48,587.22,738.4,587.74ZM869.18,387.45c.66,1.17-1.35,3.6,1.43,4.32s5.87,1.67,8.78,1.55a184.45,184.45,0,0,0,29.1-4,4.51,4.51,0,0,0,3.93-3.84c.56-2.49-1.13-3.26-2.63-4.22-4.06-2.59-8.55-4.47-12.37-7.49-5.81-4.58-12.38-3.67-18.38-1.12S869.36,380.15,869.18,387.45Zm-24,161-.51,1.31c3.32,2.52,6.31,5.2,8.2,9.07,1,2,3.26,2.95,5.81,3.34,8.73,1.36,18,.3,25.94,5.57.83.55,2.31.36,3.44.18,5.16-.85,10.24-2.84,15.55-.28.84.41,2.38-.65,3.58-1-.3-1.26-.66-2.39-1.66-2.65Q875.41,556.15,845.21,548.45ZM886.45,208.2c-5.84-.1-12.8,4.69-14.05,9.17-.42,1.51-.9,3.93,1.91,3.21,5.4-1.38,9.06,2.29,13.43,3.95,3.83,1.45,6.18,7.61,10.49,5.46,3.48-1.73,5.47-6.44,8.12-9.82a2.92,2.92,0,0,1,.32-.38c1.17-1.14.65-1.84-.47-2.72A43,43,0,0,0,886.45,208.2Zm183.39,406.92c5.57.27,8.07-1.77,8.26-6.75.25-6.15-2.6-10.22-7.35-10.51-5.27-.32-8.66,2.64-8.85,7.71C1061.62,612.76,1063.33,614.81,1069.84,615.12Zm71.05-54.47,1.55-.52c-3.22-12.07-5.27-24.44-10.31-36-.48-1.09-1.83-1.92-3-2.57s-2.31-2-3.58-.93-.45,2.46,0,3.69c3.46,9,7.7,17.59,10.53,26.81C1137.18,554.47,1139.28,557.48,1140.89,560.65ZM1017,745.11c-3.38-.18-5.6,1.76-7,4.84-1.73,3.71-3.3,7.51.09,11.08,3.15,3.32,8.18,2.07,10-2.16,1-2.26.91-4.74,2.33-7C1023.45,750.19,1019.49,745.36,1017,745.11Zm-13-67.67c3.16-2.09,6.25-4.29,9.51-6.24,1.44-.86,2.36-1.74,2.15-3.48-.62-5.08,1-9.84,2-14.69.18-.87,1.22-1.91,0-2.63a2.21,2.21,0,0,0-3.1.74c-1.5,3.26-4.89,5-6.13,8.6C1006.51,665.5,1006.19,671.68,1004.06,677.44ZM941.89,99.79c3.73-3.8,9.52-3.47,9.06-10.06-.32-4.62-.49-8.93-3.48-13.31-1,5.62.8,10.91-2.07,15.62-.62-4.18-.47-8.33-.67-12.46s.65-8.82-5.77-10.41C942,79.1,940.7,89,941.89,99.79ZM947,777c0-1.06,0-1.56,0-2a18.23,18.23,0,0,0-3.07-10.06c-1.59-2.34-1,3.79-3.84,3.26a10.86,10.86,0,0,0-2,0,1.77,1.77,0,0,0-2,1.67c-.52,2.92-1.28,5.8-1.64,8.74a5,5,0,0,0,7,5.51C944.87,782.82,947.69,780.91,947,777ZM1008.87,391l0,.24a16.55,16.55,0,0,0-3,0c-1.75.35-4.41-1.64-5.09,1.34-.55,2.39,1.28,4.35,2.68,6.16,1.11,1.43,2.81.77,4.21.57a34.68,34.68,0,0,1,11.41.07c1.41.26,3.39,1.2,4.23-.14,1-1.68-.41-3.45-1.33-5a4.61,4.61,0,0,0-3.71-2.2ZM50.75,957.66c-.81-.27-1.53.19-1.45.83.59,4.63-2.66,8.59-2.19,13.16.31,3,2,4.48,5.08,3.94,3.57-.63,8.63-6.19,8.27-8.93C60.24,965.06,52.38,957.77,50.75,957.66Zm852-887.37c1.6-3.22.76-6.58,1.08-9.82.25-2.49-.46-5.83-2.08-6.15-3.64-.73-4.46-3.63-6.33-5.75-.64-.74-1.12-2-2.22-1.7-1.51.37-1.19,1.84-1,2.93C893.22,57.82,895.24,65.4,902.71,70.29ZM734.4,500.73c-4.83,6.2-7.6,13.29-10.55,20.3-.46,1.08-1.11,2.43.19,3.09,1.56.8,1.86-.9,2.29-1.84C729.51,515.27,731.18,507.69,734.4,500.73ZM1062,578.21c.13,3.37,2.18,5.25,5.27,5.33a3.54,3.54,0,0,0,3.46-4.07c-.29-2.94-1.7-5.41-5.2-5.52C1062.66,573.86,1061.94,575.74,1062,578.21Zm-59.09-102.34c-1.48-2.05-1.72-5.59-4.36-5.51-2.31.07-.75,2.9-.87,4.53a18.1,18.1,0,0,1-.95,4.29,1.67,1.67,0,0,0,.56,2.14c.69.53,1.59.95,2.18.11C1000.69,479.69,1001.73,477.81,1002.91,475.87Zm8.54,13.18c.4-2.36.77-3.8.87-5.27.17-2.57-2.08-3.27-3.76-4-1.41-.62-2.87.3-3.73,1.67-1.56,2.51,1.21,2.5,2.14,3.5C1008.18,486.23,1009.57,487.34,1011.45,489.05Zm42.82-91.48c1.32,2.55,2.09,4.91,4.11,5,1.54,0,2.18-2.12,2.41-3.92Zm-679.92,291c-1.78,4.44-.56,7.94,4.08,11.89ZM1011.4,577.68c-1.74-3.15-.72-5.79-2.52-7.6-.26-.26-2.27.12-2.29,1.22C1006.54,573.77,1008.08,575.48,1011.4,577.68ZM898.52,144.84c.82,1.69,1.18,2.57,1.65,3.4,1.44,2.57,4,2.19,4.2,0S901.2,145.93,898.52,144.84ZM765.16,295.11c.76,3-.87,6.95,3.41,8.46Zm250,348.58c-2.13,2.57-2.13,2.57.52,4.14C1015.84,646.4,1016.34,645,1015.2,643.69ZM906.54,291.78c-.72-.36-1.09-.69-1.46-.7a4,4,0,0,0-1.29.41c.35.24.67.62,1.05.68A6.36,6.36,0,0,0,906.54,291.78ZM875.33,361l.8-.26c-.1-.1-.2-.28-.31-.29a6,6,0,0,0-.84.06Z"/><path class="cls-2" d="M811.46,732.59l-13.82-6.66c5.66.11,10.32,2.49,14.58,5.77Z"/><path class="cls-2" d="M797.3,738.66c3.09.18,5.27,2,8.1,4.28-4.16.43-6.12-2.22-8.62-3.63C797,739.09,797.12,738.87,797.3,738.66Z"/><path class="cls-2" d="M821.24,739.81c1.28,1.16,2.87,2.11,2.81,4.17l-.34.28c-2-.45-2.76-2-3.25-3.77Z"/><path class="cls-2" d="M812.22,731.7a3.61,3.61,0,0,1,3.19,2.78l-.72.82a5.28,5.28,0,0,1-3.23-2.71Z"/><path class="cls-2" d="M817.48,737.54a3.66,3.66,0,0,1-2.79-2.24l.72-.82a3.08,3.08,0,0,1,2.91,2.2Z"/><path class="cls-2" d="M819.51,739.58a3.61,3.61,0,0,1-2-2l.84-.86,2,2Z"/><path class="cls-2" d="M796.78,739.31l-1.38-.9c.74-.74,1.34-.38,1.9.25C797.12,738.87,797,739.09,796.78,739.31Z"/><path class="cls-2" d="M820.46,740.49l-.94-.91.79-.9.93,1.13Z"/><polygon class="cls-2" points="825.7 746.47 825.37 746.62 825.41 746.27 825.7 746.47"/><path class="cls-2" d="M824.05,744c.2.21.6.58.59.6-.55.64-.72.1-.93-.32Z"/><path class="cls-2" d="M939,868c-2.6-1.37-5.48-2.47-6-6C935.09,863.93,938.41,864.58,939,868Z"/><path class="cls-2" d="M933,862c-2.53-.11-3.67-1.61-4-4A8.75,8.75,0,0,1,933,862Z"/><path class="cls-2" d="M942,870a2.64,2.64,0,0,1-3-2C940.72,867.6,942,867.87,942,870Z"/><path class="cls-2" d="M752.68,660.55c-6,2.14-16-1.73-19.94-7.7A52.23,52.23,0,0,0,752.68,660.55Z"/><path class="cls-2" d="M727.21,645.8l4.08,5.25c-3-.47-3.91-2.57-4.41-4.95Z"/><path class="cls-2" d="M725,619a6.81,6.81,0,0,1,3.36,4.49c-1.43-1.22-3.33-2-3.45-4.39Z"/><path class="cls-2" d="M725,619.05a1,1,0,0,1-1-1L724,618l1,1Z"/><path class="cls-2" d="M949,815c4.33-.8,7-4.67,11-6l0,0a29.39,29.39,0,0,1-12,8l0,0,1-2Z"/><path class="cls-2" d="M967,804c.74-2.43,3.17-3,5-4.32-1.16,2-3.06,3.16-5,4.3Z"/><path class="cls-2" d="M964,806a3.57,3.57,0,0,1,3-2v0a4,4,0,0,1-3,2Z"/><path class="cls-2" d="M948,817a2.57,2.57,0,0,1-2.1,1.67c0-1.48,1.19-1.39,2.08-1.7Z"/><path class="cls-2" d="M964,806c-.23,1.1-1.1,1.56-2,2l0,0c-.07-1.37.85-1.8,2-2Z"/><path class="cls-2" d="M962,808l-2,1,0,0c.41-.89,1.24-.89,2-.94Z"/><path class="cls-2" d="M759,587c0,.81,0,1.61-1,2Z"/><path class="cls-2" d="M984.21,872.81c3.77.2,6.86,2.08,9.95,4l-.31.41a14.39,14.39,0,0,1-10-4.1Z"/><path class="cls-2" d="M994.16,876.79c2.09.19,4.26.06,6.5,2-2.75-.11-4.89-.27-6.81-1.57Z"/><path class="cls-2" d="M983.78,885.27c-.79-.33-2.18-.63-1.18-1.72s1.5.18,1.88,1C984.25,884.8,984,885,983.78,885.27Z"/><path class="cls-2" d="M983.9,873.1l-1-1,.22-.22,1.12.9Z"/></g></svg>